<svg id="Layer_1" viewBox="0 0 1000 1000" xmlns="http://www.w3.org/2000/svg" data-name="Layer 1"><path d="m523.49 351.42 29.56 59.89 66.09 9.61-47.82 46.62 11.29 65.82-59.12-31.08-59.11 31.08 11.29-65.82-47.83-46.62 66.09-9.61z"/><path d="m523.49 100 29.56 59.89 66.09 9.61-47.82 46.62 11.29 65.82-59.12-31.08-59.11 31.08 11.29-65.82-47.83-46.62 66.09-9.61z"/><path d="m764.34 426.42 29.56 59.89 66.09 9.6-47.83 46.62 11.29 65.83-59.11-31.08-59.12 31.08 11.29-65.83-47.83-46.62 66.1-9.6z"/><path d="m339.23 134.78c-76.75 151.68-51.73 341.65 75 468.38s316.7 151.75 468.38 75a403.69 403.69 0 0 1 -75 103.44c-157.88 157.87-413.9 157.89-571.8 0s-157.87-413.92 0-571.8a403.81 403.81 0 0 1 103.42-75.02z"/></svg>