<svg id="Layer_1" viewBox="0 0 64 64" xmlns="http://www.w3.org/2000/svg" data-name="Layer 1"><g><path d="m32 10.427c-.552 0-1-.448-1-1v-6.427c0-.552.448-1 1-1s1 .448 1 1v6.427c0 .552-.448 1-1 1z"/><path d="m47.961 17.039c-.256 0-.512-.098-.707-.293-.391-.391-.391-1.023 0-1.414l4.544-4.544c.391-.391 1.023-.391 1.414 0s.391 1.023 0 1.414l-4.544 4.544c-.195.195-.451.293-.707.293z"/><path d="m61 33h-6.427c-.552 0-1-.448-1-1s.448-1 1-1h6.427c.552 0 1 .448 1 1s-.448 1-1 1z"/><path d="m52.506 53.506c-.256 0-.512-.098-.707-.293l-4.544-4.544c-.391-.391-.391-1.023 0-1.414s1.023-.391 1.414 0l4.544 4.544c.391.391.391 1.023 0 1.414-.195.195-.451.293-.707.293z"/><path d="m32 62c-.552 0-1-.448-1-1v-6.427c0-.552.448-1 1-1s1 .448 1 1v6.427c0 .552-.448 1-1 1z"/><path d="m11.494 53.506c-.256 0-.512-.098-.707-.293-.391-.391-.391-1.023 0-1.414l4.544-4.544c.391-.391 1.023-.391 1.414 0s.391 1.023 0 1.414l-4.544 4.544c-.195.195-.451.293-.707.293z"/><path d="m9.427 33h-6.427c-.552 0-1-.448-1-1s.448-1 1-1h6.427c.552 0 1 .448 1 1s-.448 1-1 1z"/><path d="m16.039 17.039c-.256 0-.512-.098-.707-.293l-4.544-4.544c-.391-.391-.391-1.023 0-1.414s1.023-.391 1.414 0l4.544 4.544c.391.391.391 1.023 0 1.414-.195.195-.451.293-.707.293z"/></g><path d="m13.667 32c0 10.109 8.225 18.333 18.333 18.333s18.333-8.225 18.333-18.333-8.225-18.333-18.333-18.333-18.333 8.225-18.333 18.333zm34.043 0c0 .552-.448 1-1 1s-1-.448-1-1c0-7.56-6.15-13.709-13.709-13.709-.552 0-1-.448-1-1s.448-1 1-1c8.662 0 15.709 7.047 15.709 15.709z"/></svg>