<svg xmlns="http://www.w3.org/2000/svg" width="960" height="540" viewBox="0 0 960 540" role="img" aria-labelledby="title desc">
  <title id="title">Mapa de calor</title>
  <desc id="desc">Matriz de colores que permite localizar concentraciones y variaciones.</desc>
  <rect width="960" height="540" rx="24" fill="#141419"/>
  <g font-family="Arial, sans-serif" font-size="17" fill="#f5ead2"><text x="230" y="82">L</text><text x="350" y="82">M</text><text x="470" y="82">M</text><text x="590" y="82">J</text><text x="710" y="82">V</text><text x="830" y="82">S</text><text x="74" y="150">Tema A</text><text x="74" y="230">Tema B</text><text x="74" y="310">Tema C</text><text x="74" y="390">Tema D</text></g>
  <g stroke="#141419" stroke-width="4"><rect x="190" y="105" width="100" height="60" fill="#6f2635"/><rect x="310" y="105" width="100" height="60" fill="#b84b55"/><rect x="430" y="105" width="100" height="60" fill="#e7bd70"/><rect x="550" y="105" width="100" height="60" fill="#f5ead2"/><rect x="670" y="105" width="100" height="60" fill="#b8822d"/><rect x="790" y="105" width="100" height="60" fill="#691b32"/><rect x="190" y="185" width="100" height="60" fill="#b8822d"/><rect x="310" y="185" width="100" height="60" fill="#6f2635"/><rect x="430" y="185" width="100" height="60" fill="#b84b55"/><rect x="550" y="185" width="100" height="60" fill="#e7bd70"/><rect x="670" y="185" width="100" height="60" fill="#691b32"/><rect x="790" y="185" width="100" height="60" fill="#f5ead2"/><rect x="190" y="265" width="100" height="60" fill="#e7bd70"/><rect x="310" y="265" width="100" height="60" fill="#f5ead2"/><rect x="430" y="265" width="100" height="60" fill="#b8822d"/><rect x="550" y="265" width="100" height="60" fill="#691b32"/><rect x="670" y="265" width="100" height="60" fill="#b84b55"/><rect x="790" y="265" width="100" height="60" fill="#e7bd70"/><rect x="190" y="345" width="100" height="60" fill="#691b32"/><rect x="310" y="345" width="100" height="60" fill="#b84b55"/><rect x="430" y="345" width="100" height="60" fill="#e7bd70"/><rect x="550" y="345" width="100" height="60" fill="#b8822d"/><rect x="670" y="345" width="100" height="60" fill="#f5ead2"/><rect x="790" y="345" width="100" height="60" fill="#b84b55"/></g>
  <text x="440" y="480" fill="#a0a0a0" font-family="Arial, sans-serif" font-size="18">Días de la semana</text>
</svg>
