<?xml version="1.0" encoding="UTF-8"?><svg id="b" xmlns="http://www.w3.org/2000/svg" viewBox="0 0 232.9 274"><defs><style>.d{fill:#b69157;}</style></defs><g id="c"><g><path class="d" d="m1.5,158.6c3.3-3.3,6.7-6.6,10.2-10.1-3.9-3.9-7.8-7.7-11.7-11.6,3.9-3.8,7.5-7.4,11.2-11.1-3.6-3.6-7.1-6.9-10.3-10C39.8,76.9,78.3,38.4,116.7,0c38.2,38.2,76.6,76.6,115.1,115.1-3.3,3.3-6.9,6.9-10.7,10.5,3.8,3.8,7.3,7.2,10.9,10.8-3.7,3.7-7.1,7-10.5,10.4,4,3.9,7.7,7.5,11.4,11-39,39-77.6,77.6-116.1,116.1C78.5,235.7,40.1,197.2,1.5,158.6Zm25.3-21.3c29.8,29.8,59.8,59.8,89.5,89.5,30.1-30.1,60.4-60.4,90.2-90.2-29.7-29.9-59.6-59.9-89.3-89.7-30.2,30.2-60.4,60.4-90.4,90.4Zm89.3,115.4c-34.3-34.3-68.4-68.4-102.4-102.4-3,3.1-5.9,6-8.6,8.8,37.3,37.3,74.7,74.8,111.8,112,37.5-37.5,75-75,112.2-112.2-3-3.1-6.3-6.3-9.6-9.6-34.3,34.3-68.8,68.8-103.4,103.4Zm0-232.2c34.7,34.7,69.1,69.1,103.3,103.3,3.1-3.1,6.2-6.1,9.1-9.1C191.2,77.4,153.8,40,116.6,2.8,79.2,40.2,41.7,77.7,4.5,115c2.7,2.7,5.6,5.6,8.6,8.6C47.2,89.4,81.4,55.1,116.1,20.5Zm101.4,105.4c-33.8-33.8-67.7-67.7-101.2-101.2C82.6,58.4,48.8,92.1,15.4,125.6c3,3.1,6.2,6.4,9.7,10,30.7-30.7,61.5-61.5,92.5-92.5,30.4,30.5,60.9,61.1,91.2,91.5,3-3,5.9-5.8,8.7-8.7Zm-8.5,12.4c-30.7,30.7-61.6,61.6-92.8,92.8-30.7-30.7-61.2-61.3-91.5-91.7-3.1,3.1-6.2,6.2-9,9,33.4,33.4,67,67,100.3,100.3,33.8-33.8,67.8-67.8,101.7-101.7-2.7-2.7-5.6-5.6-8.6-8.6Zm-186.6-1c-3.1-3.1-6.4-6.4-9.5-9.4-2.9,2.9-6,6-8.8,8.8,3.1,3.1,6.3,6.4,9.3,9.6,3-3,6-6,9-8.9Zm197.2-9.2c-2.7,2.7-5.6,5.5-8.3,8.2,2.9,2.9,5.8,5.8,8.6,8.6,2.7-2.7,5.6-5.6,8.3-8.2-2.8-2.8-5.7-5.8-8.6-8.6Z"/><path class="d" d="m146.7,133.4c-1.2-2.6-2.2-5.3-3.6-7.7-4.2-7.4-11.1-10.6-19.1-11.3-8.8-.8-16.6,1.5-22.4,8.8-3.2,4.1-5.1,8.9-6.1,13.9-1.5,8.4-1.5,16.8.4,25.1,1.3,5.7,3.7,10.8,8,14.9,8.1,7.7,23.4,7,30.4-1.3,1.5-1.8,2.4-3.8,2.3-6.4-.2-4.2,0-8.4,0-12.6,0-4.3-1.1-5.5-5.4-6.1-.4,0-.8,0-1.1-.4h28.2c-.2.1-.3.3-.4.3-5.5.9-6.1,1.7-6.1,7.3,0,4.4,0,8.8,0,13.2,0,1.7-.5,2.9-1.7,4-5.4,4.8-11.6,7.9-18.6,9.6-10.3,2.6-20.7,2.8-30.8-1-12.1-4.5-19.5-13.1-22.1-25.8-1.9-9.4-1.4-18.5,2.6-27.3,4.5-9.7,12.2-15.9,22.4-18.5,14-3.6,27.8-1.9,41.3,2.9,1.4.5,1.7,1.2,1.7,2.6,0,4.4.1,8.8.2,13.2,0,.8,0,1.7,0,2.5-.1,0-.2,0-.3,0Z"/></g></g></svg>